# xmcd
#
# Track frame offsets:
#	150
#	26850
#	50799
#	70959
#	92365
#	107529
#	127722
#	156116
#	173600
#	195584
#	214759
#	239312
#
# Disc length: 3406 seconds
#
# Revision: 1
# Processed by: cddbd v1.5.2PL0 Copyright (c) Steve Scherf et al.
# Submitted via: audiograbber 1.83.01
#
DISCID=990d4c0c
DTITLE=Keith Urban - Love, Pain and The Whole Crazy Thing
DYEAR=2006
DGENRE=
TTITLE0=Once in a Lifetime
TTITLE1=Shine
TTITLE2=I Told You So
TTITLE3=I Can't Stop Loving You
TTITLE4=Won't Let You Down
TTITLE5=Faster Car
TTITLE6=Stupid Boy
TTITLE7=Used To The Pain
TTITLE8=Raise The Barn (featuring Ronnie Dunn)
TTITLE9=God Made Woman
TTITLE10=Tu Compania
TTITLE11=Everybody
EXTD=
EXTT0=
EXTT1=
EXTT2=
EXTT3=
EXTT4=
EXTT5=
EXTT6=
EXTT7=
EXTT8=
EXTT9=
EXTT10=
EXTT11=
PLAYORDER=
